<?xml version="1.0" encoding="utf-8" standalone="yes"?>
<!DOCTYPE svg PUBLIC "-//W3C//DTD SVG 1.1//EN" "http://www.w3.org/Graphics/SVG/1.1/DTD/svg11.dtd">
<svg width="734" height="614" viewBox="0 0 734 614" style="fill:none;stroke:none;fill-rule:evenodd;clip-rule:evenodd;stroke-linecap:round;stroke-linejoin:round;stroke-miterlimit:1.5;" version="1.1" xmlns="http://www.w3.org/2000/svg" xmlns:xlink="http://www.w3.org/1999/xlink"><style class="text-font-style fontImports" data-font-family="Roboto">@import url('https://fonts.googleapis.com/css2?family=Roboto:wght@400;700&amp;display=block');</style><rect id="" x="0" y="0" width="734" height="614" style="fill: none;"></rect><g id="items" style="isolation: isolate"><g id="blend" style="mix-blend-mode: normal"><g id="g-root-tf_141rn9b5viqyr-fill" data-item-order="-447984" transform="translate(-9, -9)"></g><g id="g-root-5.cu_sy_hx5l6n5v1vcw-fill" data-item-order="-133139" transform="translate(481.481689453125, 318.86279296875)"></g><g id="g-root-5.line_sy_4mbjwf5v1ts1-fill" data-item-order="-133134" transform="translate(519, 291)"></g><g id="g-root-4.cu_sy_1qbz3i75v1v5u-fill" data-item-order="-133131" transform="translate(409.091796875, 306.3671875)"></g><g id="g-root-4.line_sy_1hgc39b5v1vyj-fill" data-item-order="-133126" transform="translate(447, 413)"></g><g id="g-root-3.cu_sy_1d0il4v5v1wqs-fill" data-item-order="-133123" transform="translate(336.150390625, 287.5458984375)"></g><g id="g-root-3.line_sy_145i1z35v1udp-fill" data-item-order="-133118" transform="translate(375, 255)"></g><g id="g-root-2.cu_sy_zpojun5v1v5y-fill" data-item-order="-133115" transform="translate(263.582763671875, 258.59912109375)"></g><g id="g-root-2.line_sy_me81hb5v1wqv-fill" data-item-order="-133110" transform="translate(303, 450.99951171875)"></g><g id="g-root-1.cu_sy_hz10fz5v1udc-fill" data-item-order="-133107" transform="translate(171, 207)"></g><g id="g-root-1.line_sy_93e0735v1v61-fill" data-item-order="-133102" transform="translate(231, 183)"></g><g id="g-root-tx_transfor_8wj81r5viqkp-fill" data-item-order="0" transform="translate(183, 39)"><g id="tx_transfor_8wj81r5viqkp-fill" stroke="none" fill="#f4f4f4"><g><text style="font: bold 20px Roboto, sans-serif; white-space: pre;" font-weight="bold" font-size="20px" font-family="Roboto, sans-serif"><tspan x="13.66" y="34" dominant-baseline="ideographic">Transforming User Reviews into Insights</tspan></text></g></g></g><g id="g-root-tx_datacoll_4pgd4v5vhame-fill" data-item-order="0" transform="translate(159, 147)"><g id="tx_datacoll_4pgd4v5vhame-fill" stroke="none" fill="#f4f4f4"><g><text style="font: 20px Roboto, sans-serif; white-space: pre;" font-size="20px" font-family="Roboto, sans-serif"><tspan x="14.26" y="34" dominant-baseline="ideographic">Data Collection</tspan></text></g></g></g><g id="g-root-tx_featuree_7rfr35vhcea-fill" data-item-order="0" transform="translate(315, 195)"><g id="tx_featuree_7rfr35vhcea-fill" stroke="none" fill="#f4f4f4"><g><text style="font: 20px Roboto, sans-serif; white-space: pre;" font-size="20px" font-family="Roboto, sans-serif"><tspan x="36.46" y="34" dominant-baseline="ideographic">Feature </tspan><tspan x="17.66" y="58" dominant-baseline="ideographic">Engineering</tspan></text></g></g></g><g id="g-root-tx_keyworde_v8029r5vhclq-fill" data-item-order="0" transform="translate(471, 231)"><g id="tx_keyworde_v8029r5vhclq-fill" stroke="none" fill="#f4f4f4"><g><text style="font: 20px Roboto, sans-serif; white-space: pre;" font-size="20px" font-family="Roboto, sans-serif"><tspan x="19.72" y="34" dominant-baseline="ideographic">Keyword </tspan><tspan x="13.29" y="58" dominant-baseline="ideographic">Extraction</tspan></text></g></g></g><g id="g-root-tx_usergene_1hjgwhr5vhcsv-fill" data-item-order="0" transform="translate(15, 339)"><g id="tx_usergene_1hjgwhr5vhcsv-fill" stroke="none" fill="#f4f4f4"><g><text style="font: 20px Roboto, sans-serif; white-space: pre;" font-size="20px" font-family="Roboto, sans-serif"><tspan x="14.23" y="34" dominant-baseline="ideographic">User-Generated </tspan><tspan x="81.79" y="58" dominant-baseline="ideographic">Content</tspan></text></g></g></g><g id="g-root-sear_1hfq1z35v7i81-fill" data-item-order="0" transform="translate(219, 339)"></g><g id="g-root-2_4lpim75v39j5-fill" data-item-order="0" transform="translate(291, 339)"></g><g id="g-root-spar_i0ab9b5v3a4q-fill" data-item-order="0" transform="translate(363, 339)"></g><g id="g-root-circ_zqxri75v7ifd-fill" data-item-order="0" transform="translate(435, 339)"></g><g id="g-root-key_4nki2n5v1vya-fill" data-item-order="0" transform="translate(507, 339)"></g><g id="g-root-tx_meaningf_141rn9b5vhcsr-fill" data-item-order="0" transform="translate(579, 339)"><g id="tx_meaningf_141rn9b5vhcsr-fill" stroke="none" fill="#f4f4f4"><g><text style="font: 20px Roboto, sans-serif; white-space: pre;" font-size="20px" font-family="Roboto, sans-serif"><tspan x="12" y="34" dominant-baseline="ideographic">Meaningful </tspan><tspan x="12" y="58" dominant-baseline="ideographic">Insights</tspan></text></g></g></g><g id="g-root-tx_clusteri_dj7y4f5vhatd-fill" data-item-order="0" transform="translate(399, 459.4482421875)"><g id="tx_clusteri_dj7y4f5vhatd-fill" stroke="none" fill="#f4f4f4"><g><text style="font: 20px Roboto, sans-serif; white-space: pre;" font-size="20px" font-family="Roboto, sans-serif"><tspan x="12.85" y="34" dominant-baseline="ideographic">Clustering</tspan></text></g></g></g><g id="g-root-tx_textprep_zqxxtr5vhczw-fill" data-item-order="0" transform="translate(237, 507)"><g id="tx_textprep_zqxxtr5vhczw-fill" stroke="none" fill="#f4f4f4"><g><text style="font: 20px Roboto, sans-serif; white-space: pre;" font-size="20px" font-family="Roboto, sans-serif"><tspan x="56.98" y="34" dominant-baseline="ideographic">Text </tspan><tspan x="12.05" y="58" dominant-baseline="ideographic">Preprocessing</tspan></text></g></g></g><g id="g-root-tf_141rn9b5viqyr-stroke" data-item-order="-447984" transform="translate(-9, -9)"></g><g id="g-root-5.cu_sy_hx5l6n5v1vcw-stroke" data-item-order="-133139" transform="translate(481.481689453125, 318.86279296875)"><g id="5.cu_sy_hx5l6n5v1vcw-stroke" fill="none" stroke-linecap="round" stroke-linejoin="round" stroke-miterlimit="4" stroke="#f79438" stroke-width="2"><g><path d="M 95.5189 54.3613C 95.5189 74.3673 90.1463 90.5854 83.5189 90.5854L 82.9503 90.6341C 58.0923 92.7685 33.8589 95.4393 10.3927 98.6907L 10 98.7362C 17.5088 97.9299 23.5181 78.3547 23.5181 54.3245C 23.5181 31.2469 17.9758 12.278 10.8856 10.0963L 10.1629 10C 33.8369 13.2847 58.2924 15.9781 83.383 18.1255L 83.5189 18.1372C 90.1463 18.1372 95.5189 34.3553 95.5189 54.3613Z"></path></g></g></g><g id="g-root-5.line_sy_4mbjwf5v1ts1-stroke" data-item-order="-133134" transform="translate(519, 291)"><g id="5.line_sy_4mbjwf5v1ts1-stroke" fill="none" stroke-linecap="round" stroke-linejoin="round" stroke-miterlimit="4" stroke="#f4f4f4" stroke-width="2"><g><path d="M 10 10L 10 40.5"></path><path d="M 3.5 34.5L 10 41L 16.5 34.5" stroke-dasharray="none"></path></g></g></g><g id="g-root-4.cu_sy_1qbz3i75v1v5u-stroke" data-item-order="-133131" transform="translate(409.091796875, 306.3671875)"><g id="4.cu_sy_1qbz3i75v1v5u-stroke" fill="none" stroke-linecap="round" stroke-linejoin="round" stroke-miterlimit="4" stroke="#ffe711" stroke-width="2"><g><path d="M 10.0607 10C 33.2293 14.865601 57.4512 19.012801 82.5518 22.4955L 83.2754 22.591901C 90.3656 24.7736 95.9078 43.742501 95.9078 66.820101C 95.9078 90.850301 89.8986 110.425501 82.3898 111.231801L 81.8441 111.316501C 56.974 114.7818 32.9692 118.9009 10 123.7263L 10.1207 123.7041C 17.8251 121.3875 23.8878 96.8046 23.8878 66.820101C 23.8878 37.506001 18.0932 13.354601 10.635 10.124701L 10.0607 10Z"></path></g></g></g><g id="g-root-4.line_sy_1hgc39b5v1vyj-stroke" data-item-order="-133126" transform="translate(447, 413)"><g id="4.line_sy_1hgc39b5v1vyj-stroke" fill="none" stroke-linecap="round" stroke-linejoin="round" stroke-miterlimit="4" stroke="#f4f4f4" stroke-width="2"><g><path d="M 10 12L 10 43.58"></path><path d="M 16.5 18L 10 11.5L 3.5 18" stroke-dasharray="none"></path></g></g></g><g id="g-root-3.cu_sy_1d0il4v5v1wqs-stroke" data-item-order="-133123" transform="translate(336.150390625, 287.5458984375)"><g id="3.cu_sy_1d0il4v5v1wqs-stroke" fill="none" stroke-linecap="round" stroke-linejoin="round" stroke-miterlimit="4" stroke="#a6da37" stroke-width="2"><g><path d="M 83.5764 28.9459C 91.0346 32.1759 96.8292 56.3273 96.8292 85.6414C 96.8292 115.6259 90.7665 140.2088 83.0621 142.5254L 82.942 142.5475C 57.2533 147.9442 32.8599 154.2242 10 161.461L 10.495 161.3031C 18.5642 157.3714 24.8587 124.9969 24.8587 85.6414C 24.8587 46.8128 18.7317 14.7795 10.8182 10.1529L 10.332 10C 33.1141 17.1982 57.4161 23.4478 83.0027 28.8213L 83.5764 28.9459Z"></path></g></g></g><g id="g-root-3.line_sy_145i1z35v1udp-stroke" data-item-order="-133118" transform="translate(375, 255)"><g id="3.line_sy_145i1z35v1udp-stroke" fill="none" stroke-linecap="round" stroke-linejoin="round" stroke-miterlimit="4" stroke="#f4f4f4" stroke-width="2"><g><path d="M 10 10L 10 50.75"></path><path d="M 3.5 44.8L 10 51.3L 16.5 44.8" stroke-dasharray="none"></path></g></g></g><g id="g-root-2.cu_sy_zpojun5v1v5y-stroke" data-item-order="-133115" transform="translate(263.582763671875, 258.59912109375)"><g id="2.cu_sy_zpojun5v1v5y-stroke" fill="none" stroke-linecap="round" stroke-linejoin="round" stroke-miterlimit="4" stroke="#43dd93" stroke-width="2"><g><path d="M 10.3663 219.1724C 32.1801 208.2538 56.3669 198.7024 82.5682 190.4078L 83.0627 190.2499C 91.1319 186.3182 97.4263 153.9437 97.4263 114.5882C 97.4263 75.7596 91.2993 43.7263 83.3858 39.0996L 82.9002 38.9468C 56.5094 30.6084 32.1582 20.997 10.2122 10L 10.2273 10.027C 18.7678 15.6314 25.4213 60.3202 25.4213 114.6186C 25.4213 169.3976 18.6495 214.3961 10 219.3497L 10.3663 219.1724Z"></path></g></g></g><g id="g-root-2.line_sy_me81hb5v1wqv-stroke" data-item-order="-133110" transform="translate(303, 450.99951171875)"><g id="2.line_sy_me81hb5v1wqv-stroke" fill="none" stroke-linecap="round" stroke-linejoin="round" stroke-miterlimit="4" stroke="#f4f4f4" stroke-width="2"><g><path d="M 10 12.000488L 10 54.250488"></path><path d="M 16.5 18.000488L 10 11.500488L 3.5 18.000488" stroke-dasharray="none"></path></g></g></g><g id="g-root-1.cu_sy_hz10fz5v1udc-stroke" data-item-order="-133107" transform="translate(171, 207)"><g id="1.cu_sy_hz10fz5v1udc-stroke" fill="none" stroke-linecap="round" stroke-linejoin="round" stroke-miterlimit="4" stroke="#1ac3fb" stroke-width="2"><g><path d="M 10 166C 10 252.156423 18.058875 322.000002 28 322.000002C 37.941126 322.000002 46 252.156423 46 166.000002C 46 79.843581 37.941126 10.000002 28 10.000002C 18.058875 10.000002 10 79.843581 10 166.000002M 30.074219 321.19681C 49.009019 302.95661 75.196019 283.70611 103.055219 270.91191C 111.482419 264.30161 118.000519 223.29441 118.000519 166.23431C 118.000519 108.97511 111.439019 67.66101 102.969319 61.31111C 75.101219 48.51661 49.090319 28.92651 30.177719 11.13121"></path></g></g></g><g id="g-root-1.line_sy_93e0735v1v61-stroke" data-item-order="-133102" transform="translate(231, 183)"><g id="1.line_sy_93e0735v1v61-stroke" fill="none" stroke-linecap="round" stroke-linejoin="round" stroke-miterlimit="4" stroke="#f4f4f4" stroke-width="2"><g><path d="M 10 10L 10 65"></path><path d="M 3.5 59L 10 65.5L 16.5 59" stroke-dasharray="none"></path></g></g></g><g id="g-root-tx_transfor_8wj81r5viqkp-stroke" data-item-order="0" transform="translate(183, 39)"></g><g id="g-root-tx_datacoll_4pgd4v5vhame-stroke" data-item-order="0" transform="translate(159, 147)"></g><g id="g-root-tx_featuree_7rfr35vhcea-stroke" data-item-order="0" transform="translate(315, 195)"></g><g id="g-root-tx_keyworde_v8029r5vhclq-stroke" data-item-order="0" transform="translate(471, 231)"></g><g id="g-root-tx_usergene_1hjgwhr5vhcsv-stroke" data-item-order="0" transform="translate(15, 339)"></g><g id="g-root-sear_1hfq1z35v7i81-stroke" data-item-order="0" transform="translate(219, 339)"><g id="sear_1hfq1z35v7i81-stroke" fill="none" stroke-linecap="round" stroke-linejoin="round" stroke-miterlimit="4" stroke="#1ac3fb" stroke-width="2"><g><path d="M 11.714286 30.297144C 11.712329 40.561554 20.03273 48.883545 30.297144 48.883545C 40.561554 48.883545 48.881958 40.561554 48.880001 30.297144C 48.881958 20.03273 40.561554 11.710742 30.297144 11.710742C 20.03273 11.710742 11.712329 20.03273 11.714286 30.297144M 56.285713 56.285713L 43.428574 43.428574"></path></g></g></g><g id="g-root-2_4lpim75v39j5-stroke" data-item-order="0" transform="translate(291, 339)"><g id="2_4lpim75v39j5-stroke" fill="none" stroke-linecap="round" stroke-linejoin="round" stroke-miterlimit="4" stroke="#43dd93" stroke-width="2"><g><path d="M 56.248402 16.17882C 52.048401 29.37882 46.248402 41.778801 37.048401 52.178799C 34.448402 55.5788 27.825239 54.763401 25.18214 52.178799L 27.148279 48.797199C 19.8652 50.423801 17.848381 44.5788 17.848381 44.5788C 31.8484 36.978798 42.248402 29.9788 49.648399 13.7788C 50.648399 11.978804 52.048401 10.978804 54.248402 11.778804C 56.448399 12.5788 56.8484 14.37882 56.248402 16.17882ZM 10 10M 44.062401 23.63282L 52.231602 27.125M 10 10M 47.262001 18.539059L 54.448002 21.476559M 24.29998 26.97834C 24.499981 26.578341 24.5 25.978359 24.5 25.57836C 24.5 22.17836 21.9 19.57836 18.5 19.57836C 15.1 19.57836 12.5 22.17836 12.5 25.57836C 12.5 28.978359 15.1 31.5784 18.5 31.5784L 18.69998 31.5784C 19.099979 33.378403 20.700001 34.5784 22.5 34.5784C 24.700001 34.5784 26.5 32.7784 26.5 30.5784C 26.5 28.978359 25.499981 27.578341 24.29998 26.97834ZM 42.917 56.765598C 42.696201 56.765598 42.516998 56.586399 42.516998 56.365601C 42.516998 56.1446 42.696201 55.965599 42.917 55.965599M 42.917 56.765598C 43.137798 56.765598 43.316799 56.586399 43.316799 56.365601C 43.316799 56.1446 43.137798 55.965599 42.917 55.965599M 50.917 46.605202C 50.696201 46.605202 50.516998 46.425999 50.516998 46.2052C 50.516998 45.9842 50.696201 45.805199 50.917 45.805199M 50.917 46.605202C 51.137798 46.605202 51.316799 46.425999 51.316799 46.2052C 51.316799 45.9842 51.137798 45.805199 50.917 45.805199M 56.100201 56.765598C 55.8792 56.765598 55.700199 56.586399 55.700199 56.365601C 55.700199 56.1446 55.8792 55.965599 56.100201 55.965599M 56.099998 56.765598C 56.320999 56.765598 56.5 56.586399 56.5 56.365601C 56.5 56.1446 56.320999 55.965599 56.099998 55.965599"></path></g></g></g><g id="g-root-spar_i0ab9b5v3a4q-stroke" data-item-order="0" transform="translate(363, 339)"><g id="spar_i0ab9b5v3a4q-stroke" fill="none" stroke-linecap="round" stroke-linejoin="round" stroke-miterlimit="4" stroke="#a6da37" stroke-width="2"><g><path d="M 38.880798 20.63026C 43.214802 19.75902 46.704201 16.227261 47.576801 11.78125C 48.4492 16.227261 51.937801 19.75902 56.271801 20.63026M 56.271801 20.63534C 51.937801 21.50658 48.448399 25.03834 47.575802 29.484341C 46.703201 25.03834 43.214802 21.50658 38.880798 20.63534M 25.303799 56.2174L 11.728516 50.2178L 11.728516 18.8125L 25.303799 24.812099M 38.877998 30.1052L 38.877998 50.211601L 25.30274 56.211201L 25.30274 24.805759L 32.641197 21.5625M 10 10M 38.876999 50.2206L 52.452202 56.2202L 52.452202 34.2812"></path></g></g></g><g id="g-root-circ_zqxri75v7ifd-stroke" data-item-order="0" transform="translate(435, 339)"><g id="circ_zqxri75v7ifd-stroke" fill="none" stroke-linecap="round" stroke-linejoin="round" stroke-miterlimit="4" stroke="#ffe711" stroke-width="2"><g><path d="M 11 34.02C 11 46.722549 21.297451 57.02 34 57.02C 46.702549 57.02 57 46.722549 57 34.02C 57 21.317451 46.702549 11.02 34 11.02C 21.297451 11.02 11 21.317451 11 34.02ZM 17.5 28.52C 17.5 33.21442 21.30558 37.02 26 37.02C 30.69442 37.02 34.5 33.21442 34.5 28.52C 34.5 23.825581 30.69442 20.02 26 20.02C 21.30558 20.02 17.5 23.825581 17.5 28.52ZM 49.355999 42.599998C 45.072517 41.074444 40.299065 42.630806 37.737999 46.388C 33.533558 39.921589 24.890907 38.073936 18.41 42.256001M 40 33.02C 40 36.33371 42.686291 39.02 46 39.02C 49.313709 39.02 52 36.33371 52 33.02C 52 29.706293 49.313709 27.02 46 27.02C 42.686291 27.02 40 29.706293 40 33.02Z"></path></g></g></g><g id="g-root-key_4nki2n5v1vya-stroke" data-item-order="0" transform="translate(507, 339)"><g id="key_4nki2n5v1vya-stroke" fill="none" stroke-linecap="round" stroke-linejoin="round" stroke-miterlimit="4" stroke="#f79438" stroke-width="2"><g><path d="M 11 19C 11 23.418278 19.50659 27 30 27C 40.493408 27 49 23.418278 49 19C 49 14.581722 40.493408 11 30 11C 19.50659 11 11 14.581722 11 19M 33 34.900002C 32.02 34.900002 31 35 30 35C 19.5 35 11 31.42 11 27M 29 44C 19 43.779999 11 40.279999 11 36M 29 53C 19 52.779999 11 49.279999 11 45L 11 19M 49 19L 49 30M 38.239998 49C 38.239998 50.380711 39.359291 51.5 40.739998 51.5C 42.120712 51.5 43.240002 50.380711 43.240002 49C 43.240002 47.619289 42.120712 46.5 40.739998 46.5C 39.359291 46.5 38.239998 47.619289 38.239998 49M 48.099998 45.880001L 57 37L 57 33L 53 33L 43.860001 41.639999C 40.334702 40.144318 36.243874 41.356651 34.102737 44.531609C 31.961599 47.706562 32.370728 51.95359 35.078568 54.661434C 37.786407 57.369274 42.03344 57.7784 45.208393 55.637264C 48.383347 53.496128 49.595684 49.4053 48.099998 45.880001Z"></path></g></g></g><g id="g-root-tx_meaningf_141rn9b5vhcsr-stroke" data-item-order="0" transform="translate(579, 339)"></g><g id="g-root-tx_clusteri_dj7y4f5vhatd-stroke" data-item-order="0" transform="translate(399, 459.4482421875)"></g><g id="g-root-tx_textprep_zqxxtr5vhczw-stroke" data-item-order="0" transform="translate(237, 507)"></g></g></g></svg>